<svg width="340" height="340" viewBox="0 0 340 340" fill="none" xmlns="http://www.w3.org/2000/svg">
<path opacity="0.2" d="M290.714 170C290.714 184.52 270.03 195.478 264.389 209.104C258.957 222.244 266.037 244.669 255.359 255.359C244.68 266.049 222.244 258.957 209.104 264.389C195.536 270.03 184.509 290.714 170 290.714C155.491 290.714 144.464 270.03 130.895 264.389C117.756 258.957 95.3196 266.037 84.641 255.359C73.9624 244.68 81.0428 222.244 75.6106 209.104C69.9696 195.536 49.2856 184.509 49.2856 170C49.2856 155.491 69.9696 144.464 75.6106 130.895C81.0428 117.768 73.9624 95.3196 84.641 84.641C95.3196 73.9624 117.768 81.0428 130.895 75.6106C144.522 69.9696 155.491 49.2856 170 49.2856C184.509 49.2856 195.536 69.9696 209.104 75.6106C222.244 81.0428 244.68 73.9624 255.359 84.641C266.037 95.3196 258.957 117.756 264.389 130.895C270.03 144.522 290.714 155.491 290.714 170Z" fill="white"/>
<path d="M283.587 140.773C279.212 136.2 274.685 131.487 272.979 127.344C271.4 123.548 271.307 117.257 271.214 111.163C271.04 99.8348 270.854 86.9973 261.929 78.0714C253.003 69.1455 240.165 68.9598 228.837 68.7857C222.743 68.6929 216.452 68.6 212.656 67.0214C208.524 65.3152 203.8 60.7884 199.227 56.4125C191.218 48.717 182.118 40 170 40C157.882 40 148.794 48.717 140.773 56.4125C136.2 60.7884 131.487 65.3152 127.344 67.0214C123.571 68.6 117.257 68.6929 111.163 68.7857C99.8348 68.9598 86.9973 69.1455 78.0714 78.0714C69.1455 86.9973 69.0179 99.8348 68.7857 111.163C68.6929 117.257 68.6 123.548 67.0214 127.344C65.3152 131.476 60.7884 136.2 56.4125 140.773C48.717 148.782 40 157.882 40 170C40 182.118 48.717 191.206 56.4125 199.227C60.7884 203.8 65.3152 208.512 67.0214 212.656C68.6 216.452 68.6929 222.743 68.7857 228.837C68.9598 240.165 69.1455 253.003 78.0714 261.929C86.9973 270.854 99.8348 271.04 111.163 271.214C117.257 271.307 123.548 271.4 127.344 272.979C131.476 274.685 136.2 279.212 140.773 283.587C148.782 291.283 157.882 300 170 300C182.118 300 191.206 291.283 199.227 283.587C203.8 279.212 208.512 274.685 212.656 272.979C216.452 271.4 222.743 271.307 228.837 271.214C240.165 271.04 253.003 270.854 261.929 261.929C270.854 253.003 271.04 240.165 271.214 228.837C271.307 222.743 271.4 216.452 272.979 212.656C274.685 208.524 279.212 203.8 283.587 199.227C291.283 191.218 300 182.118 300 170C300 157.882 291.283 148.794 283.587 140.773ZM270.181 186.378C264.621 192.181 258.864 198.182 255.812 205.553C252.887 212.633 252.759 220.723 252.643 228.558C252.527 236.683 252.399 245.191 248.789 248.789C245.179 252.388 236.729 252.527 228.558 252.643C220.723 252.759 212.633 252.887 205.553 255.812C198.182 258.864 192.181 264.621 186.378 270.181C180.574 275.741 174.643 281.429 170 281.429C165.357 281.429 159.379 275.718 153.622 270.181C147.865 264.645 141.818 258.864 134.447 255.812C127.367 252.887 119.277 252.759 111.442 252.643C103.317 252.527 94.8089 252.399 91.2107 248.789C87.6125 245.179 87.4732 236.729 87.3571 228.558C87.2411 220.723 87.1134 212.633 84.1884 205.553C81.1357 198.182 75.3786 192.181 69.8187 186.378C64.2589 180.574 58.5714 174.643 58.5714 170C58.5714 165.357 64.2821 159.379 69.8187 153.622C75.3554 147.865 81.1357 141.818 84.1884 134.447C87.1134 127.367 87.2411 119.277 87.3571 111.442C87.4732 103.317 87.6009 94.8089 91.2107 91.2107C94.8205 87.6125 103.271 87.4732 111.442 87.3571C119.277 87.2411 127.367 87.1134 134.447 84.1884C141.818 81.1357 147.819 75.3786 153.622 69.8187C159.426 64.2589 165.357 58.5714 170 58.5714C174.643 58.5714 180.621 64.2821 186.378 69.8187C192.135 75.3554 198.182 81.1357 205.553 84.1884C212.633 87.1134 220.723 87.2411 228.558 87.3571C236.683 87.4732 245.191 87.6009 248.789 91.2107C252.388 94.8205 252.527 103.271 252.643 111.442C252.759 119.277 252.887 127.367 255.812 134.447C258.864 141.818 264.621 147.819 270.181 153.622C275.741 159.426 281.429 165.357 281.429 170C281.429 174.643 275.718 180.621 270.181 186.378ZM183.929 230.357C183.929 233.112 183.112 235.805 181.581 238.095C180.051 240.386 177.875 242.171 175.33 243.225C172.785 244.28 169.985 244.556 167.283 244.018C164.581 243.481 162.099 242.154 160.151 240.206C158.203 238.258 156.876 235.776 156.339 233.074C155.802 230.373 156.077 227.572 157.132 225.027C158.186 222.482 159.971 220.306 162.262 218.776C164.552 217.245 167.245 216.429 170 216.429C173.694 216.429 177.237 217.896 179.849 220.508C182.461 223.12 183.929 226.663 183.929 230.357ZM216.429 146.786C216.429 166.959 200.457 183.847 179.286 187.736V188.571C179.286 191.034 178.307 193.396 176.566 195.137C174.825 196.879 172.463 197.857 170 197.857C167.537 197.857 165.175 196.879 163.434 195.137C161.693 193.396 160.714 191.034 160.714 188.571V179.286C160.714 176.823 161.693 174.461 163.434 172.72C165.175 170.978 167.537 170 170 170C185.356 170 197.857 159.554 197.857 146.786C197.857 134.018 185.356 123.571 170 123.571C154.644 123.571 142.143 134.018 142.143 146.786V151.429C142.143 153.891 141.165 156.253 139.423 157.995C137.682 159.736 135.32 160.714 132.857 160.714C130.394 160.714 128.033 159.736 126.291 157.995C124.55 156.253 123.571 153.891 123.571 151.429V146.786C123.571 123.746 144.395 105 170 105C195.605 105 216.429 123.746 216.429 146.786Z" fill="white"/>
</svg>
