<svg width="340" height="340" viewBox="0 0 340 340" fill="none" xmlns="http://www.w3.org/2000/svg">
<path d="M28.3019 179.595L49.3384 117.211H66.5349L87.5713 179.595H73.4636L69.2897 166.867H46.5001L42.3262 179.595H28.3019ZM50.0897 155.562H65.7001L56.1836 126.087H59.6897L50.0897 155.562Z" fill="white"/>
<path d="M4.1322 218.148V171.36H22.0383C25.2522 171.36 28.0905 171.926 30.5531 173.056C33.0574 174.186 35.0192 175.861 36.4383 178.08C37.8574 180.299 38.567 183.042 38.567 186.307C38.567 189.489 37.8366 192.19 36.3757 194.409C34.9566 196.628 32.9948 198.323 30.4905 199.496C28.0279 200.626 25.2105 201.191 22.0383 201.191H13.8365V218.148H4.1322ZM13.8365 192.713H22.1009C23.4783 192.713 24.6679 192.441 25.6696 191.897C26.6713 191.352 27.4435 190.599 27.9861 189.636C28.5705 188.673 28.8626 187.563 28.8626 186.307C28.8626 185.009 28.5705 183.879 27.9861 182.916C27.4435 181.953 26.6713 181.199 25.6696 180.655C24.6679 180.111 23.4783 179.839 22.1009 179.839H13.8365V192.713Z" fill="white"/>
<path d="M52.8084 218.902C50.3457 218.902 48.2171 218.504 46.4223 217.708C44.6275 216.913 43.2501 215.782 42.2901 214.317C41.3301 212.81 40.8501 211.03 40.8501 208.979C40.8501 207.053 41.2884 205.357 42.1649 203.892C43.0414 202.385 44.3771 201.129 46.1718 200.124C48.0084 199.119 50.2831 198.407 52.9962 197.989L63.4518 196.293V203.201L54.6866 204.771C53.351 205.022 52.3284 205.462 51.6188 206.09C50.9092 206.676 50.5544 207.534 50.5544 208.665C50.5544 209.712 50.951 210.528 51.744 211.114C52.5371 211.7 53.5179 211.993 54.6866 211.993C56.231 211.993 57.5875 211.658 58.7562 210.989C59.9249 210.319 60.8223 209.418 61.4484 208.288C62.1162 207.116 62.4501 205.839 62.4501 204.457V195.539C62.4501 194.241 61.9284 193.153 60.8849 192.274C59.8831 191.394 58.5058 190.955 56.7527 190.955C55.0831 190.955 53.6014 191.415 52.3075 192.336C51.0553 193.257 50.1371 194.472 49.5527 195.979L42.0397 192.399C42.7075 190.473 43.7718 188.819 45.2327 187.438C46.6936 186.056 48.4466 184.989 50.4918 184.235C52.5371 183.481 54.7701 183.104 57.191 183.104C60.071 183.104 62.6171 183.628 64.8292 184.675C67.0414 185.721 68.7527 187.187 69.9631 189.071C71.2153 190.913 71.8414 193.069 71.8414 195.539V218.148H63.0762V212.621L65.2049 212.245C64.2031 213.752 63.0971 215.008 61.8866 216.013C60.6762 216.976 59.3197 217.687 57.8171 218.148C56.3144 218.65 54.6449 218.902 52.8084 218.902Z" fill="white"/>
<path d="M91.134 218.902C87.3775 218.902 84.1005 218.022 81.304 216.264C78.5492 214.464 76.6709 212.056 75.6692 209.042L82.5561 205.776C83.4327 207.618 84.6222 209.063 86.1248 210.109C87.6279 211.156 89.2975 211.679 91.134 211.679C92.4696 211.679 93.4922 211.407 94.2018 210.863C94.9114 210.319 95.2661 209.565 95.2661 208.602C95.2661 208.1 95.1409 207.681 94.8905 207.346C94.6401 206.969 94.2644 206.634 93.7635 206.341C93.2627 206.048 92.6366 205.797 91.8853 205.588L86.0622 203.955C83.2657 203.159 81.1161 201.882 79.6135 200.124C78.1109 198.323 77.3596 196.209 77.3596 193.781C77.3596 191.646 77.9022 189.782 78.9875 188.191C80.0727 186.6 81.5961 185.365 83.5579 184.486C85.5196 183.565 87.774 183.104 90.3201 183.104C93.6592 183.104 96.5809 183.9 99.0853 185.491C101.631 187.04 103.426 189.238 104.47 192.085L97.5201 195.351C97.0192 193.927 96.1009 192.797 94.7653 191.96C93.4714 191.08 91.9896 190.641 90.3201 190.641C89.1096 190.641 88.1496 190.892 87.4401 191.394C86.7718 191.897 86.4379 192.588 86.4379 193.467C86.4379 193.927 86.5631 194.346 86.8135 194.723C87.0644 195.1 87.4609 195.435 88.0035 195.728C88.5879 196.021 89.2975 196.293 90.1322 196.544L95.5792 198.177C98.4175 199.014 100.588 200.291 102.09 202.008C103.593 203.683 104.344 205.755 104.344 208.225C104.344 210.36 103.781 212.224 102.654 213.815C101.569 215.406 100.045 216.662 98.0835 217.583C96.1218 218.462 93.8053 218.902 91.134 218.902Z" fill="white"/>
<path d="M127.245 218.525C123.113 218.525 119.899 217.415 117.604 215.196C115.35 212.936 114.223 209.795 114.223 205.776V192.023H108.463V183.858H108.776C110.529 183.858 111.864 183.419 112.783 182.539C113.743 181.66 114.223 180.341 114.223 178.583V176.071H123.614V183.858H131.628V192.023H123.614V205.148C123.614 206.32 123.823 207.304 124.24 208.1C124.657 208.853 125.304 209.419 126.181 209.795C127.057 210.172 128.143 210.361 129.437 210.361C129.729 210.361 130.063 210.34 130.438 210.298C130.814 210.256 131.21 210.214 131.628 210.172V218.148C131.002 218.232 130.292 218.316 129.499 218.399C128.706 218.483 127.955 218.525 127.245 218.525Z" fill="white"/>
<path d="M4.29175 179.595V167.872H8.04827C10.5526 167.872 12.5561 167.174 14.0587 165.778C15.617 164.327 16.3961 162.429 16.3961 160.084V117.211H29.3352V159.498C29.3352 163.517 28.4726 167.034 26.7474 170.049C25.0222 173.063 22.5457 175.408 19.3179 177.083C16.1457 178.757 12.3892 179.595 8.04827 179.595H4.29175Z" fill="white"/>
<path d="M88.4974 179.595V117.211H101.437V148.445L97.847 147.189L122.724 117.211H138.918L114.292 147.021L115.044 137.81L139.419 179.595H124.31L109.117 153.218L101.437 162.512V179.595H88.4974Z" fill="white"/>
<path d="M179.063 218.902C176.141 218.902 173.386 218.378 170.798 217.332C168.252 216.243 166.04 214.715 164.162 212.747C162.325 210.779 160.948 208.456 160.03 205.776L167.981 202.196C169.15 204.75 170.757 206.76 172.802 208.225C174.889 209.691 177.184 210.423 179.689 210.423C181.024 210.423 182.172 210.214 183.132 209.795C184.092 209.377 184.843 208.811 185.386 208.1C185.929 207.346 186.2 206.467 186.2 205.462C186.2 204.373 185.866 203.452 185.198 202.699C184.53 201.903 183.487 201.275 182.068 200.815L172.927 197.8C169.212 196.586 166.416 194.869 164.537 192.65C162.659 190.39 161.72 187.689 161.72 184.549C161.72 181.786 162.388 179.357 163.723 177.264C165.101 175.171 167 173.538 169.421 172.365C171.883 171.193 174.701 170.607 177.873 170.607C180.67 170.607 183.257 171.088 185.636 172.051C188.016 173.014 190.061 174.375 191.772 176.133C193.525 177.892 194.84 180.006 195.717 182.477L187.828 186.056C186.951 183.879 185.637 182.183 183.883 180.969C182.13 179.713 180.127 179.085 177.873 179.085C176.579 179.085 175.431 179.295 174.43 179.713C173.428 180.132 172.656 180.739 172.113 181.535C171.57 182.288 171.299 183.167 171.299 184.172C171.299 185.261 171.654 186.224 172.363 187.061C173.073 187.857 174.137 188.485 175.557 188.945L184.51 191.834C188.266 193.048 191.063 194.744 192.899 196.921C194.777 199.098 195.717 201.757 195.717 204.897C195.717 207.618 195.007 210.047 193.588 212.182C192.169 214.275 190.207 215.929 187.703 217.143C185.24 218.315 182.36 218.902 179.063 218.902Z" fill="white"/>
<path d="M219.612 218.902C215.981 218.902 212.83 218.106 210.158 216.515C207.487 214.882 205.421 212.705 203.96 209.984C202.499 207.262 201.769 204.248 201.769 200.94C201.769 197.507 202.52 194.451 204.023 191.771C205.567 189.092 207.633 186.977 210.221 185.428C212.809 183.879 215.73 183.104 218.986 183.104C221.699 183.104 224.099 183.544 226.186 184.423C228.273 185.261 230.026 186.454 231.445 188.003C232.906 189.552 234.012 191.352 234.763 193.404C235.515 195.414 235.89 197.612 235.89 199.998C235.89 200.668 235.849 201.338 235.765 202.008C235.723 202.636 235.619 203.18 235.452 203.641H209.845V196.732H230.13L225.685 199.998C226.103 198.198 226.082 196.607 225.623 195.225C225.163 193.802 224.35 192.692 223.181 191.897C222.054 191.059 220.656 190.641 218.986 190.641C217.358 190.641 215.96 191.038 214.791 191.834C213.623 192.629 212.746 193.802 212.162 195.351C211.577 196.9 211.348 198.784 211.473 201.003C211.306 202.929 211.536 204.625 212.162 206.09C212.788 207.555 213.748 208.707 215.042 209.544C216.336 210.34 217.901 210.737 219.737 210.737C221.407 210.737 222.826 210.402 223.995 209.732C225.205 209.063 226.144 208.141 226.812 206.969L234.325 210.549C233.657 212.224 232.593 213.689 231.132 214.945C229.713 216.201 228.023 217.185 226.061 217.897C224.099 218.567 221.95 218.902 219.612 218.902Z" fill="white"/>
<path d="M289.961 218.902C287.498 218.902 285.37 218.504 283.575 217.708C281.78 216.913 280.403 215.782 279.443 214.317C278.483 212.81 278.003 211.03 278.003 208.979C278.003 207.053 278.441 205.357 279.317 203.892C280.194 202.385 281.53 201.129 283.324 200.124C285.161 199.119 287.436 198.407 290.149 197.989L300.604 196.293V203.201L291.839 204.771C290.503 205.022 289.481 205.462 288.771 206.09C288.062 206.676 287.707 207.534 287.707 208.665C287.707 209.712 288.103 210.528 288.896 211.114C289.69 211.7 290.67 211.993 291.839 211.993C293.383 211.993 294.74 211.658 295.909 210.989C297.077 210.319 297.975 209.418 298.601 208.288C299.269 207.116 299.603 205.839 299.603 204.457V195.539C299.603 194.241 299.081 193.153 298.037 192.274C297.036 191.394 295.658 190.955 293.905 190.955C292.236 190.955 290.754 191.415 289.46 192.336C288.208 193.257 287.29 194.472 286.705 195.979L279.192 192.399C279.86 190.473 280.924 188.819 282.385 187.438C283.846 186.056 285.599 184.989 287.644 184.235C289.69 183.481 291.923 183.104 294.343 183.104C297.223 183.104 299.77 183.628 301.982 184.675C304.194 185.721 305.905 187.187 307.116 189.071C308.368 190.913 308.994 193.069 308.994 195.539V218.148H300.229V212.621L302.357 212.245C301.356 213.752 300.25 215.008 299.039 216.013C297.829 216.976 296.472 217.687 294.97 218.148C293.467 218.65 291.797 218.902 289.961 218.902Z" fill="white"/>
<path d="M136.81 179.595L157.846 117.211H175.043L196.079 179.595H181.971L177.797 166.867H155.008L150.834 179.595H136.81ZM158.597 155.562H174.208L164.691 126.087H168.197L158.597 155.562Z" fill="white"/>
<path d="M136.866 218.148V183.858H146.257V218.148H136.866ZM136.866 180.781V171.36H146.257V180.781H136.866Z" fill="white"/>
<path d="M197.502 179.595V117.211H221.293C225.578 117.211 229.363 117.965 232.646 119.472C235.985 120.98 238.601 123.212 240.493 126.171C242.385 129.13 243.331 132.786 243.331 137.141C243.331 141.383 242.357 145.012 240.41 148.026C238.462 150.985 235.846 153.218 232.563 154.725L246.754 179.595H232.229L216.869 152.046L225.216 156.986H210.441V179.595H197.502ZM210.441 145.682H221.376C223.213 145.682 224.799 145.319 226.135 144.593C227.47 143.867 228.5 142.862 229.223 141.579C230.003 140.295 230.392 138.815 230.392 137.141C230.392 135.41 230.003 133.903 229.223 132.619C228.5 131.335 227.47 130.33 226.135 129.604C224.799 128.879 223.213 128.516 221.376 128.516H210.441V145.682Z" fill="white"/>
<path d="M241.901 217.077V169.536H251.292V189.57L250.165 188.062C250.958 186.011 252.231 184.504 253.984 183.541C255.779 182.536 257.866 182.033 260.245 182.033C262.833 182.033 265.087 182.578 267.007 183.666C268.969 184.755 270.492 186.283 271.577 188.251C272.663 190.177 273.205 192.438 273.205 195.033V217.077H263.814V197.043C263.814 195.703 263.543 194.552 263 193.589C262.499 192.626 261.769 191.872 260.809 191.328C259.89 190.784 258.805 190.512 257.553 190.512C256.343 190.512 255.257 190.784 254.297 191.328C253.337 191.872 252.586 192.626 252.043 193.589C251.543 194.552 251.292 195.703 251.292 197.043V217.077H241.901Z" fill="white"/>
<path d="M259.112 179.595V128.516H243.335V117.211H287.578V128.516H272.051V179.595H259.112Z" fill="white"/>
<path d="M276.855 179.595L297.891 117.211H315.088L336.124 179.595H322.016L317.843 166.867H295.053L290.879 179.595H276.855ZM298.643 155.562H314.253L304.736 126.087H308.243L298.643 155.562Z" fill="white"/>
<path d="M331.558 218.525C327.426 218.525 324.212 217.415 321.917 215.196C319.663 212.936 318.536 209.795 318.536 205.776V192.023H312.776V183.858H313.089C314.842 183.858 316.177 183.419 317.096 182.539C318.056 181.66 318.536 180.341 318.536 178.583V176.071H327.927V183.858H335.941V192.023H327.927V205.148C327.927 206.32 328.136 207.304 328.553 208.1C328.97 208.853 329.617 209.419 330.494 209.795C331.37 210.172 332.456 210.361 333.75 210.361C334.042 210.361 334.376 210.34 334.751 210.298C335.127 210.256 335.523 210.214 335.941 210.172V218.148C335.315 218.232 334.605 218.316 333.812 218.399C333.019 218.483 332.268 218.525 331.558 218.525Z" fill="white"/>
<path d="M12.4928 243.64C11.6318 243.64 10.8308 243.482 10.0897 243.164C9.35948 242.847 8.72192 242.41 8.17697 241.852C7.64294 241.284 7.22334 240.617 6.91819 239.852C6.61302 239.086 6.46045 238.245 6.46045 237.327C6.46045 236.419 6.60758 235.582 6.90184 234.817C7.207 234.041 7.63204 233.375 8.17697 232.817C8.72192 232.249 9.35948 231.811 10.0897 231.506C10.8198 231.188 11.6209 231.029 12.4928 231.029C13.3537 231.029 14.1221 231.178 14.7978 231.472C15.4844 231.767 16.0621 232.155 16.5307 232.637C16.9993 233.107 17.3372 233.621 17.5443 234.178L15.8114 234.998C15.5498 234.342 15.1303 233.812 14.5526 233.407C13.9859 232.992 13.2993 232.784 12.4928 232.784C11.6863 232.784 10.9724 232.975 10.3512 233.358C9.73001 233.741 9.24505 234.271 8.89627 234.949C8.55841 235.627 8.38949 236.419 8.38949 237.327C8.38949 238.234 8.55841 239.032 8.89627 239.72C9.24505 240.398 9.73001 240.928 10.3512 241.311C10.9724 241.683 11.6863 241.869 12.4928 241.869C13.2993 241.869 13.9859 241.666 14.5526 241.263C15.1303 240.858 15.5498 240.327 15.8114 239.672L17.5443 240.491C17.3372 241.038 16.9993 241.552 16.5307 242.033C16.0621 242.514 15.4844 242.902 14.7978 243.197C14.1221 243.492 13.3537 243.64 12.4928 243.64ZM24.9555 243.64C24.0727 243.64 23.2498 243.482 22.487 243.164C21.735 242.847 21.0701 242.404 20.4925 241.836C19.9257 241.268 19.479 240.6 19.152 239.836C18.8359 239.071 18.6779 238.234 18.6779 237.327C18.6779 236.419 18.8359 235.582 19.152 234.817C19.479 234.041 19.9257 233.375 20.4925 232.817C21.0592 232.249 21.724 231.811 22.487 231.506C23.2498 231.188 24.0727 231.029 24.9555 231.029C25.8491 231.029 26.672 231.188 27.424 231.506C28.1869 231.811 28.8517 232.249 29.4184 232.817C29.996 233.385 30.4429 234.053 30.759 234.817C31.075 235.582 31.233 236.419 31.233 237.327C31.233 238.234 31.0696 239.071 30.7426 239.836C30.4265 240.6 29.9851 241.268 29.4184 241.836C28.8517 242.404 28.1869 242.847 27.424 243.164C26.661 243.482 25.8383 243.64 24.9555 243.64ZM24.9555 241.869C25.5876 241.869 26.1652 241.754 26.6884 241.524C27.2224 241.295 27.6856 240.978 28.0779 240.573C28.4703 240.158 28.7754 239.677 28.9934 239.131C29.2113 238.572 29.3204 237.972 29.3204 237.327C29.3204 236.681 29.2113 236.086 28.9934 235.539C28.7754 234.993 28.4703 234.511 28.0779 234.096C27.6856 233.681 27.2224 233.358 26.6884 233.129C26.1652 232.899 25.5876 232.784 24.9555 232.784C24.3233 232.784 23.7403 232.899 23.2063 233.129C22.6831 233.358 22.2254 233.681 21.833 234.096C21.4407 234.511 21.1355 234.993 20.9176 235.539C20.7104 236.086 20.607 236.681 20.607 237.327C20.607 237.972 20.7104 238.572 20.9176 239.131C21.1355 239.677 21.4407 240.158 21.833 240.573C22.2254 240.978 22.6885 241.295 23.2226 241.524C23.7566 241.754 24.3343 241.869 24.9555 241.869ZM32.8993 243.443V231.226H34.6976L39.275 237.589H38.3758L42.8715 231.226H44.6697V243.443H42.757V233.506L43.4764 233.703L38.8826 239.999H38.6864L34.1908 233.703L34.8284 233.506V243.443H32.8993ZM46.6973 243.443V231.226H48.4956L53.073 237.589H52.1738L56.6695 231.226H58.4677V243.443H56.555V233.506L57.2744 233.703L52.6806 239.999H52.4844L47.9888 233.703L48.6264 233.506V243.443H46.6973ZM65.0563 243.64C64.1517 243.64 63.3452 243.448 62.6368 243.066C61.9393 242.683 61.389 242.158 60.9857 241.492C60.5933 240.825 60.3971 240.065 60.3971 239.213V231.226H62.3262V239.131C62.3262 239.666 62.4406 240.142 62.6695 240.557C62.9093 240.972 63.2308 241.295 63.634 241.524C64.0482 241.754 64.5223 241.869 65.0563 241.869C65.6012 241.869 66.0753 241.754 66.4785 241.524C66.8927 241.295 67.2142 240.972 67.4431 240.557C67.6829 240.142 67.8027 239.666 67.8027 239.131V231.226H69.7154V239.213C69.7154 240.065 69.5192 240.825 69.1269 241.492C68.7345 242.158 68.1842 242.683 67.4757 243.066C66.7783 243.448 65.9717 243.64 65.0563 243.64ZM71.6431 243.443V231.226H73.1961L80.0295 240.689L79.2938 240.803V231.226H81.2065V243.443H79.6535L72.8691 233.916L73.5721 233.785V243.443H71.6431ZM83.2379 243.443V231.226H85.167V243.443H83.2379ZM89.3591 243.443V232.948H86.1226V231.226H94.46V232.948H91.2722V243.443H89.3591ZM98.5017 243.443V237.933L94.3331 231.226H96.507L99.8417 236.654H99.0739L102.392 231.226H104.567L100.414 237.933V243.443H98.5017ZM104.523 245.854V244.952C104.883 244.864 105.161 244.695 105.357 244.444C105.553 244.203 105.673 243.87 105.717 243.443H104.85V241.311H106.73V242.705C106.73 243.58 106.545 244.285 106.174 244.82C105.803 245.356 105.253 245.701 104.523 245.854ZM111.47 243.443V231.226H115.9C116.717 231.226 117.437 231.379 118.058 231.685C118.679 231.981 119.164 232.418 119.513 232.997C119.872 233.566 120.052 234.249 120.052 235.047C120.052 235.889 119.84 236.611 119.415 237.212C119.001 237.813 118.439 238.251 117.731 238.524L120.543 243.443H118.352L115.361 238.114L116.619 238.852H113.399V243.443H111.47ZM113.399 237.13H115.933C116.38 237.13 116.766 237.043 117.093 236.867C117.42 236.693 117.671 236.452 117.845 236.146C118.03 235.828 118.123 235.457 118.123 235.031C118.123 234.605 118.03 234.238 117.845 233.932C117.671 233.615 117.42 233.375 117.093 233.211C116.766 233.035 116.38 232.948 115.933 232.948H113.399V237.13ZM121.676 243.443V231.226H129.703V232.948H123.604V236.457H129.376V238.179H123.604V241.721H129.703V243.443H121.676ZM131.003 243.443V231.226H132.932V241.721H138.197V243.443H131.003ZM138.247 243.443L142.53 231.226H144.917L149.2 243.443H147.14L146.208 240.704H141.255L140.306 243.443H138.247ZM141.81 238.982H145.619L143.462 232.587H144.001L141.81 238.982ZM151.498 243.443V232.948H148.261V231.226H156.598V232.948H153.41V243.443H151.498ZM155.657 243.443L159.94 231.226H162.327L166.61 243.443H164.55L163.618 240.704H158.665L157.717 243.443H155.657ZM159.221 238.982H163.03L160.872 232.587H161.411L159.221 238.982ZM167.564 243.443V231.226H172.697C173.461 231.226 174.12 231.363 174.676 231.636C175.231 231.899 175.657 232.281 175.951 232.784C176.245 233.276 176.392 233.861 176.392 234.539C176.392 235.129 176.24 235.671 175.935 236.162C175.64 236.643 175.177 237.026 174.545 237.31V236.49C175.101 236.709 175.553 236.988 175.902 237.327C176.25 237.655 176.502 238.026 176.654 238.442C176.817 238.857 176.899 239.295 176.899 239.754C176.899 240.901 176.523 241.803 175.771 242.459C175.03 243.115 174.011 243.443 172.714 243.443H167.564ZM169.494 241.721H172.861C173.504 241.721 174.017 241.546 174.398 241.196C174.779 240.836 174.97 240.361 174.97 239.77C174.97 239.168 174.779 238.693 174.398 238.343C174.017 237.983 173.504 237.802 172.861 237.802H169.494V241.721ZM169.494 236.097H172.747C173.27 236.097 173.69 235.949 174.005 235.654C174.322 235.348 174.48 234.949 174.48 234.457C174.48 233.965 174.322 233.582 174.005 233.309C173.69 233.035 173.27 232.899 172.747 232.899H169.494V236.097ZM178.393 243.443V231.226H180.322V241.721H185.586V243.443H178.393ZM186.715 243.443V231.226H194.742V232.948H188.644V236.457H194.415V238.179H188.644V241.721H194.742V243.443H186.715ZM196.337 245.854V244.952C196.697 244.864 196.975 244.695 197.171 244.444C197.367 244.203 197.487 243.87 197.53 243.443H196.664V241.311H198.544V242.705C198.544 243.58 198.359 244.285 197.989 244.82C197.617 245.356 197.068 245.701 196.337 245.854ZM208.957 243.64C208.096 243.64 207.295 243.482 206.554 243.164C205.823 242.847 205.186 242.41 204.641 241.852C204.107 241.284 203.687 240.617 203.382 239.852C203.077 239.086 202.924 238.245 202.924 237.327C202.924 236.419 203.071 235.582 203.366 234.817C203.67 234.041 204.096 233.375 204.641 232.817C205.186 232.249 205.823 231.811 206.554 231.506C207.283 231.188 208.084 231.029 208.957 231.029C209.817 231.029 210.586 231.178 211.262 231.472C211.949 231.767 212.526 232.155 212.995 232.637C213.463 233.107 213.801 233.621 214.008 234.178L212.276 234.998C212.014 234.342 211.594 233.812 211.017 233.407C210.45 232.992 209.763 232.784 208.957 232.784C208.15 232.784 207.437 232.975 206.815 233.358C206.194 233.741 205.709 234.271 205.36 234.949C205.023 235.627 204.853 236.419 204.853 237.327C204.853 238.234 205.023 239.032 205.36 239.72C205.709 240.398 206.194 240.928 206.815 241.311C207.437 241.683 208.15 241.869 208.957 241.869C209.763 241.869 210.45 241.666 211.017 241.263C211.594 240.858 212.014 240.327 212.276 239.672L214.008 240.491C213.801 241.038 213.463 241.552 212.995 242.033C212.526 242.514 211.949 242.902 211.262 243.197C210.586 243.492 209.817 243.64 208.957 243.64ZM221.419 243.64C220.537 243.64 219.714 243.482 218.95 243.164C218.199 242.847 217.534 242.404 216.957 241.836C216.39 241.268 215.943 240.6 215.616 239.836C215.3 239.071 215.142 238.234 215.142 237.327C215.142 236.419 215.3 235.582 215.616 234.817C215.943 234.041 216.39 233.375 216.957 232.817C217.523 232.249 218.188 231.811 218.95 231.506C219.714 231.188 220.537 231.029 221.419 231.029C222.313 231.029 223.136 231.188 223.888 231.506C224.65 231.811 225.316 232.249 225.883 232.817C226.46 233.385 226.907 234.053 227.223 234.817C227.539 235.582 227.697 236.419 227.697 237.327C227.697 238.234 227.533 239.071 227.206 239.836C226.89 240.6 226.449 241.268 225.883 241.836C225.316 242.404 224.65 242.847 223.888 243.164C223.125 243.482 222.302 243.64 221.419 243.64ZM221.419 241.869C222.051 241.869 222.629 241.754 223.152 241.524C223.686 241.295 224.15 240.978 224.542 240.573C224.934 240.158 225.239 239.677 225.457 239.131C225.675 238.572 225.784 237.972 225.784 237.327C225.784 236.681 225.675 236.086 225.457 235.539C225.239 234.993 224.934 234.511 224.542 234.096C224.15 233.681 223.686 233.358 223.152 233.129C222.629 232.899 222.051 232.784 221.419 232.784C220.787 232.784 220.204 232.899 219.67 233.129C219.147 233.358 218.69 233.681 218.297 234.096C217.904 234.511 217.599 234.993 217.382 235.539C217.174 236.086 217.07 236.681 217.07 237.327C217.07 237.972 217.174 238.572 217.382 239.131C217.599 239.677 217.904 240.158 218.297 240.573C218.69 240.978 219.152 241.295 219.686 241.524C220.221 241.754 220.798 241.869 221.419 241.869ZM229.364 243.443V231.226H231.292V241.721H236.557V243.443H229.364ZM237.685 243.443V231.226H239.614V241.721H244.878V243.443H237.685ZM244.929 243.443L249.211 231.226H251.598L255.882 243.443H253.822L252.89 240.704H247.937L246.988 243.443H244.929ZM248.492 238.982H252.301L250.144 232.587H250.683L248.492 238.982ZM256.836 243.443V231.226H261.969C262.732 231.226 263.391 231.363 263.947 231.636C264.503 231.899 264.928 232.281 265.223 232.784C265.517 233.276 265.663 233.861 265.663 234.539C265.663 235.129 265.511 235.671 265.206 236.162C264.911 236.643 264.449 237.026 263.817 237.31V236.49C264.372 236.709 264.824 236.988 265.173 237.327C265.522 237.655 265.773 238.026 265.925 238.442C266.089 238.857 266.17 239.295 266.17 239.754C266.17 240.901 265.795 241.803 265.043 242.459C264.302 243.115 263.283 243.443 261.985 243.443H256.836ZM258.765 241.721H262.132C262.776 241.721 263.288 241.546 263.67 241.196C264.05 240.836 264.242 240.361 264.242 239.77C264.242 239.168 264.05 238.693 263.67 238.343C263.288 237.983 262.776 237.802 262.132 237.802H258.765V241.721ZM258.765 236.097H262.018C262.541 236.097 262.961 235.949 263.277 235.654C263.593 235.348 263.751 234.949 263.751 234.457C263.751 233.965 263.593 233.582 263.277 233.309C262.961 233.035 262.541 232.899 262.018 232.899H258.765V236.097ZM273.583 243.64C272.699 243.64 271.877 243.482 271.114 243.164C270.362 242.847 269.697 242.404 269.119 241.836C268.552 241.268 268.106 240.6 267.779 239.836C267.463 239.071 267.304 238.234 267.304 237.327C267.304 236.419 267.463 235.582 267.779 234.817C268.106 234.041 268.552 233.375 269.119 232.817C269.686 232.249 270.35 231.811 271.114 231.506C271.877 231.188 272.699 231.029 273.583 231.029C274.476 231.029 275.299 231.188 276.05 231.506C276.814 231.811 277.478 232.249 278.045 232.817C278.623 233.385 279.07 234.053 279.386 234.817C279.702 235.582 279.86 236.419 279.86 237.327C279.86 238.234 279.697 239.071 279.37 239.836C279.053 240.6 278.612 241.268 278.045 241.836C277.478 242.404 276.814 242.847 276.05 243.164C275.288 243.482 274.465 243.64 273.583 243.64ZM273.583 241.869C274.215 241.869 274.792 241.754 275.315 241.524C275.85 241.295 276.312 240.978 276.704 240.573C277.097 240.158 277.403 239.677 277.62 239.131C277.838 238.572 277.947 237.972 277.947 237.327C277.947 236.681 277.838 236.086 277.62 235.539C277.403 234.993 277.097 234.511 276.704 234.096C276.312 233.681 275.85 233.358 275.315 233.129C274.792 232.899 274.215 232.784 273.583 232.784C272.95 232.784 272.367 232.899 271.833 233.129C271.31 233.358 270.852 233.681 270.46 234.096C270.068 234.511 269.763 234.993 269.544 235.539C269.337 236.086 269.234 236.681 269.234 237.327C269.234 237.972 269.337 238.572 269.544 239.131C269.763 239.677 270.068 240.158 270.46 240.573C270.852 240.978 271.316 241.295 271.85 241.524C272.384 241.754 272.961 241.869 273.583 241.869ZM281.526 243.443V231.226H285.957C286.774 231.226 287.493 231.379 288.114 231.685C288.736 231.981 289.221 232.418 289.57 232.997C289.929 233.566 290.109 234.249 290.109 235.047C290.109 235.889 289.897 236.611 289.471 237.212C289.057 237.813 288.496 238.251 287.787 238.524L290.599 243.443H288.409L285.417 238.114L286.676 238.852H283.455V243.443H281.526ZM283.455 237.13H285.989C286.436 237.13 286.823 237.043 287.15 236.867C287.477 236.693 287.728 236.452 287.902 236.146C288.087 235.828 288.18 235.457 288.18 235.031C288.18 234.605 288.087 234.238 287.902 233.932C287.728 233.615 287.477 233.375 287.15 233.211C286.823 233.035 286.436 232.948 285.989 232.948H283.455V237.13ZM290.653 243.443L294.937 231.226H297.323L301.606 243.443H299.546L298.615 240.704H293.661L292.713 243.443H290.653ZM294.217 238.982H298.026L295.868 232.587H296.408L294.217 238.982ZM303.904 243.443V232.948H300.667V231.226H309.004V232.948H305.817V243.443H303.904ZM309.957 243.443V231.226H311.886V243.443H309.957ZM319.838 243.64C318.956 243.64 318.133 243.482 317.37 243.164C316.617 242.847 315.953 242.404 315.376 241.836C314.809 241.268 314.362 240.6 314.035 239.836C313.719 239.071 313.561 238.234 313.561 237.327C313.561 236.419 313.719 235.582 314.035 234.817C314.362 234.041 314.809 233.375 315.376 232.817C315.942 232.249 316.607 231.811 317.37 231.506C318.133 231.188 318.956 231.029 319.838 231.029C320.732 231.029 321.555 231.188 322.307 231.506C323.07 231.811 323.735 232.249 324.301 232.817C324.879 233.385 325.326 234.053 325.642 234.817C325.958 235.582 326.116 236.419 326.116 237.327C326.116 238.234 325.952 239.071 325.625 239.836C325.31 240.6 324.868 241.268 324.301 241.836C323.735 242.404 323.07 242.847 322.307 243.164C321.544 243.482 320.721 243.64 319.838 243.64ZM319.838 241.869C320.47 241.869 321.048 241.754 321.571 241.524C322.105 241.295 322.569 240.978 322.961 240.573C323.353 240.158 323.658 239.677 323.877 239.131C324.094 238.572 324.204 237.972 324.204 237.327C324.204 236.681 324.094 236.086 323.877 235.539C323.658 234.993 323.353 234.511 322.961 234.096C322.569 233.681 322.105 233.358 321.571 233.129C321.048 232.899 320.47 232.784 319.838 232.784C319.206 232.784 318.624 232.899 318.089 233.129C317.566 233.358 317.108 233.681 316.716 234.096C316.323 234.511 316.018 234.993 315.8 235.539C315.593 236.086 315.49 236.681 315.49 237.327C315.49 237.972 315.593 238.572 315.8 239.131C316.018 239.677 316.323 240.158 316.716 240.573C317.108 240.978 317.571 241.295 318.105 241.524C318.639 241.754 319.217 241.869 319.838 241.869ZM327.783 243.443V231.226H329.336L336.169 240.689L335.433 240.803V231.226H337.346V243.443H335.793L329.009 233.916L329.711 233.785V243.443H327.783Z" fill="white"/>
</svg>
